<?xml version="1.0" ?>
<!DOCTYPE svg  PUBLIC '-//W3C//DTD SVG 1.1//EN'  'http://www.w3.org/Graphics/SVG/1.1/DTD/svg11.dtd'>
<!-- Uploaded to: SVG Repo, www.svgrepo.com, Generator: SVG Repo Mixer Tools -->
<svg fill="#000000" width="800px" height="800px" viewBox="0 0 32 32" style="fill-rule:evenodd;clip-rule:evenodd;stroke-linejoin:round;stroke-miterlimit:2;" version="1.1" xml:space="preserve" xmlns="http://www.w3.org/2000/svg" xmlns:serif="http://www.serif.com/" xmlns:xlink="http://www.w3.org/1999/xlink">
<g id="Icon">
<path d="M14.994,10.88l-0,0.001c-0.002,0.018 -0.002,0.036 -0.002,0.054l-0,4.6c-0.236,-0.066 -0.485,-0.101 -0.742,-0.101c-1.518,0 -2.75,1.232 -2.75,2.75c0,1.518 1.232,2.75 2.75,2.75c1.518,0 2.75,-1.232 2.75,-2.75c0,-0.072 -0.008,-4.835 -0.008,-4.835l1.301,1.301c0.39,0.39 1.024,0.39 1.414,0c0.391,-0.39 0.391,-1.024 0,-1.414l-3.008,-3.008c-0.39,-0.391 -1.024,-0.391 -1.414,-0c-0.181,0.181 -0.278,0.415 -0.291,0.652Zm-0.744,6.554c0.414,0 0.75,0.336 0.75,0.75c0,0.414 -0.336,0.75 -0.75,0.75c-0.414,0 -0.75,-0.336 -0.75,-0.75c0,-0.414 0.336,-0.75 0.75,-0.75Z"/>
<path d="M22.796,24.209l3.451,3.451c0.39,0.39 1.024,0.39 1.414,0c0.391,-0.39 0.391,-1.024 0,-1.414l-3.451,-3.451c1.673,-1.992 2.681,-4.559 2.681,-7.36c0,-6.321 -5.131,-11.452 -11.452,-11.452c-6.32,-0 -11.452,5.131 -11.452,11.452c0,6.32 5.132,11.451 11.452,11.451c2.8,0 5.366,-1.006 7.357,-2.677Zm-7.357,-18.226c5.217,-0 9.452,4.235 9.452,9.452c0,5.216 -4.235,9.451 -9.452,9.451c-5.216,0 -9.452,-4.235 -9.452,-9.451c0,-5.217 4.236,-9.452 9.452,-9.452Z"/>
</g>
</svg>